<svg 
 xmlns="http://www.w3.org/2000/svg"
 xmlns:xlink="http://www.w3.org/1999/xlink"
 width="22px" height="9px">
<path fill-rule="evenodd"  fill="rgb(163, 187, 200)"
 d="M0.296,5.473 L0.287,5.470 L17.244,5.470 L17.143,8.329 C17.89,8.383 17.59,8.457 17.59,8.534 C17.59,8.611 17.89,8.684 17.143,8.738 L17.316,8.912 C17.370,8.966 17.442,8.996 17.519,8.996 C17.596,8.996 17.669,8.966 17.723,8.912 L21.915,4.701 C21.970,4.646 22.0,4.573 21.999,4.496 C22.0,4.419 21.970,4.346 21.915,4.293 L17.723,0.79 C17.669,0.26 17.596,0.3 17.519,0.3 C17.442,0.3 17.370,0.26 17.316,0.79 L17.143,0.253 C17.89,0.307 17.59,0.380 17.59,0.457 C17.59,0.534 17.89,0.603 17.143,0.657 L17.256,3.521 L0.292,3.521 C0.133,3.521 0.0,3.659 0.0,3.818 L0.0,5.187 C0.0,5.346 0.137,5.473 0.296,5.473 Z"/>
</svg>