<?xml version="1.0" encoding="UTF-8"?>
<svg xmlns="http://www.w3.org/2000/svg" xmlns:xlink="http://www.w3.org/1999/xlink" width="20px" height="20px" viewBox="0 0 20 20" version="1.1">
<g id="surface1">
<path style=" stroke:none;fill-rule:nonzero;fill:#526278;fill-opacity:1;" d="M 17.464844 0 L 2.464844 0 C 1.089844 0 -0.0351562 1.125 -0.0351562 2.464844 L -0.0351562 13.679688 C -0.0351562 15.058594 1.089844 16.144531 2.464844 16.144531 L 6.214844 16.144531 L 6.214844 19.425781 C 6.214844 19.808594 6.644531 20.03125 6.960938 19.804688 L 11.839844 16.144531 L 17.464844 16.144531 C 18.84375 16.144531 19.964844 15.023438 19.964844 13.679688 L 19.964844 2.464844 C 19.964844 1.125 18.875 0 17.464844 0 Z M 18.125 13.75 C 18.125 14.09375 17.84375 14.375 17.5 14.375 L 11.25 14.375 L 8.125 16.71875 L 8.125 14.375 L 2.5 14.375 C 2.15625 14.375 1.875 14.09375 1.875 13.75 L 1.875 2.5 C 1.875 2.15625 2.15625 1.875 2.5 1.875 L 17.5 1.875 C 17.84375 1.875 18.125 2.15625 18.125 2.5 Z M 18.125 13.75 "/>
</g>
</svg>
