    <svg xmlns="http://www.w3.org/2000/svg" xmlns:xlink="http://www.w3.org/1999/xlink"
                                    width="13px" height="15px" viewBox="0 0 13 14" version="1.1">
                                    <g>
                                       <path style=" stroke:none;fill-rule:nonzero;fill:#436372;fill-opacity:1;"
                                          d="M 7.894531 8.3125 L 5.105469 8.3125 C 2.285156 8.3125 0 10.46875 0 13.125 C 0 13.609375 0.414062 14 0.929688 14 L 12.070312 14 C 12.585938 14 13 13.609375 13 13.125 C 13 10.46875 10.714844 8.3125 7.894531 8.3125 Z M 1.421875 12.6875 C 1.652344 10.960938 3.214844 9.625 5.105469 9.625 L 7.894531 9.625 C 9.785156 9.625 11.347656 10.964844 11.578125 12.6875 Z M 6.5 7 C 8.550781 7 10.214844 5.433594 10.214844 3.5 C 10.214844 1.566406 8.550781 0 6.5 0 C 4.449219 0 2.785156 1.566406 2.785156 3.5 C 2.785156 5.433594 4.449219 7 6.5 7 Z M 6.5 1.3125 C 7.78125 1.3125 8.820312 2.292969 8.820312 3.5 C 8.820312 4.707031 7.78125 5.6875 6.5 5.6875 C 5.21875 5.6875 4.179688 4.707031 4.179688 3.5 C 4.179688 2.292969 5.21875 1.3125 6.5 1.3125 Z M 6.5 1.3125 " />
                                    </g>
                                 </svg>